<svg width="1200" height="720" viewBox="0 0 1200 720" fill="none" xmlns="http://www.w3.org/2000/svg">
  <rect width="1200" height="720" rx="36" fill="#EEF3F8"/>
  <rect x="40" y="40" width="1120" height="640" rx="28" fill="#FFFFFF"/>
  <rect x="76" y="78" width="370" height="28" rx="14" fill="#111111"/>
  <rect x="76" y="126" width="320" height="16" rx="8" fill="#D8D8D8"/>
  <rect x="76" y="186" width="240" height="132" rx="24" fill="#FFF6CF"/>
  <rect x="334" y="186" width="240" height="132" rx="24" fill="#E7F4EC"/>
  <rect x="592" y="186" width="240" height="132" rx="24" fill="#F9E7E8"/>
  <rect x="850" y="186" width="240" height="132" rx="24" fill="#E8ECF8"/>
  <rect x="76" y="352" width="560" height="252" rx="24" fill="#F7F7F7"/>
  <rect x="668" y="352" width="422" height="252" rx="24" fill="#F7F7F7"/>
  <path d="M116 544L212 486L308 500L404 428L500 454L596 392" stroke="#111111" stroke-width="8" stroke-linecap="round" stroke-linejoin="round"/>
  <rect x="710" y="402" width="338" height="24" rx="12" fill="#111111"/>
  <rect x="710" y="452" width="280" height="16" rx="8" fill="#A7A7A7"/>
  <rect x="710" y="490" width="310" height="16" rx="8" fill="#A7A7A7"/>
  <rect x="710" y="528" width="250" height="16" rx="8" fill="#A7A7A7"/>
  <rect x="76" y="626" width="296" height="18" rx="9" fill="#111111"/>
  <text x="76" y="664" fill="#111111" font-family="Arial, sans-serif" font-size="46" font-weight="700">Analytics dashboard placeholder</text>
  <text x="710" y="388" fill="#111111" font-family="Arial, sans-serif" font-size="24" font-weight="700">Trending claims</text>
</svg>
