<svg width="1200" height="720" viewBox="0 0 1200 720" fill="none" xmlns="http://www.w3.org/2000/svg">
  <rect width="1200" height="720" rx="36" fill="#F6F0EC"/>
  <rect x="40" y="40" width="1120" height="640" rx="28" fill="#FFFFFF"/>
  <rect x="76" y="78" width="320" height="28" rx="14" fill="#111111"/>
  <rect x="76" y="126" width="280" height="16" rx="8" fill="#D8D8D8"/>
  <rect x="76" y="188" width="650" height="90" rx="26" fill="#ECECEC"/>
  <rect x="76" y="300" width="700" height="90" rx="26" fill="#ECECEC"/>
  <rect x="424" y="424" width="700" height="120" rx="28" fill="#FFF4C2" stroke="#F0CF4D" stroke-width="3"/>
  <rect x="460" y="464" width="420" height="18" rx="9" fill="#111111"/>
  <rect x="460" y="498" width="530" height="14" rx="7" fill="#5D5D5D"/>
  <rect x="460" y="528" width="280" height="14" rx="7" fill="#5D5D5D"/>
  <rect x="76" y="586" width="240" height="50" rx="25" fill="#111111"/>
  <text x="76" y="612" fill="#FFFFFF" font-family="Arial, sans-serif" font-size="22" font-weight="700">Telegram thread</text>
  <text x="76" y="664" fill="#111111" font-family="Arial, sans-serif" font-size="46" font-weight="700">Screenshot placeholder</text>
  <text x="734" y="238" fill="#111111" font-family="Arial, sans-serif" font-size="24" font-weight="700">Forwarded claim</text>
  <text x="512" y="454" fill="#111111" font-family="Arial, sans-serif" font-size="26" font-weight="700">Bot response with evidence</text>
</svg>
