<svg width="1200" height="720" viewBox="0 0 1200 720" fill="none" xmlns="http://www.w3.org/2000/svg">
  <rect width="1200" height="720" rx="36" fill="#F4F1EA"/>
  <rect x="40" y="40" width="1120" height="640" rx="28" fill="#FFFFFF"/>
  <rect x="76" y="78" width="344" height="28" rx="14" fill="#111111"/>
  <rect x="76" y="126" width="292" height="16" rx="8" fill="#D8D8D8"/>
  <rect x="76" y="194" width="1048" height="172" rx="28" fill="#F7F7F7"/>
  <rect x="116" y="238" width="420" height="18" rx="9" fill="#111111"/>
  <rect x="116" y="274" width="780" height="14" rx="7" fill="#9B9B9B"/>
  <rect x="116" y="304" width="660" height="14" rx="7" fill="#9B9B9B"/>
  <rect x="76" y="406" width="184" height="58" rx="29" fill="#111111"/>
  <rect x="280" y="406" width="184" height="58" rx="29" fill="#FFF6CF" stroke="#111111" stroke-width="3"/>
  <rect x="484" y="406" width="184" height="58" rx="29" fill="#F2F2F2"/>
  <rect x="688" y="406" width="184" height="58" rx="29" fill="#F2F2F2"/>
  <rect x="76" y="506" width="1048" height="114" rx="28" fill="#EEF4FF"/>
  <rect x="116" y="546" width="360" height="18" rx="9" fill="#111111"/>
  <rect x="116" y="580" width="540" height="14" rx="7" fill="#6F6F6F"/>
  <text x="76" y="664" fill="#111111" font-family="Arial, sans-serif" font-size="46" font-weight="700">Translation UX placeholder</text>
  <text x="112" y="443" fill="#FFFFFF" font-family="Arial, sans-serif" font-size="24" font-weight="700">EN</text>
  <text x="317" y="443" fill="#111111" font-family="Arial, sans-serif" font-size="24" font-weight="700">ZH</text>
  <text x="520" y="443" fill="#111111" font-family="Arial, sans-serif" font-size="24" font-weight="700">MS</text>
  <text x="724" y="443" fill="#111111" font-family="Arial, sans-serif" font-size="24" font-weight="700">TA</text>
</svg>
